<?xml version="1.0" encoding="utf-8"?>
<!-- Generator: Adobe Illustrator 22.1.0, SVG Export Plug-In . SVG Version: 6.00 Build 0)  -->
<svg version="1.1" id="Layer_1" xmlns="http://www.w3.org/2000/svg" xmlns:xlink="http://www.w3.org/1999/xlink" x="0px" y="0px"
	 viewBox="0 0 492 492" style="enable-background:new 0 0 492 492;" xml:space="preserve">
<style type="text/css">
	.st0{fill:#525252;}
	.st1{fill:none;stroke:#525252;stroke-width:14.9822;stroke-miterlimit:10;}
</style>
<g>
	<g>
		<path class="st0" d="M245.9,214.6l96,96c2.6,2.6,6.2,4.1,9.9,4.1c3.8,0,7.3-1.5,9.9-4.1l8.4-8.4c2.6-2.6,4.1-6.2,4.1-9.9
			c0-3.8-1.5-7.3-4.1-9.9L255.9,168.1c-2.6-2.7-6.2-4.1-10-4.1c-3.8,0-7.3,1.4-10,4.1L121.8,282.3c-2.6,2.6-4.1,6.2-4.1,9.9
			c0,3.8,1.5,7.3,4.1,9.9l8.4,8.4c5.5,5.5,14.4,5.5,19.9,0L245.9,214.6z"/>
	</g>
</g>
<circle class="st1" cx="246" cy="246" r="216.8"/>
</svg>
