<?xml version="1.0" encoding="utf-8"?>
<!-- Generator: Adobe Illustrator 22.1.0, SVG Export Plug-In . SVG Version: 6.00 Build 0)  -->
<svg version="1.1" id="Layer_1" xmlns="http://www.w3.org/2000/svg" xmlns:xlink="http://www.w3.org/1999/xlink" x="0px" y="0px"
	 viewBox="0 0 492 492" style="enable-background:new 0 0 492 492;" xml:space="preserve">
<style type="text/css">
	.st0{fill:#525252;}
	.st1{fill:none;stroke:#525252;stroke-width:14.9822;stroke-miterlimit:10;}
</style>
<g>
	<g>
		<path class="st0" d="M246,274.1l-96-96c-2.6-2.6-6.2-4.1-9.9-4.1c-3.8,0-7.3,1.5-9.9,4.1l-8.4,8.4c-2.6,2.6-4.1,6.2-4.1,9.9
			c0,3.8,1.5,7.3,4.1,9.9L236,320.6c2.6,2.7,6.2,4.1,10,4.1c3.8,0,7.3-1.4,10-4.1l114.1-114.2c2.6-2.6,4.1-6.2,4.1-9.9
			c0-3.8-1.5-7.3-4.1-9.9l-8.4-8.4c-5.5-5.5-14.4-5.5-19.9,0L246,274.1z"/>
	</g>
</g>
<circle class="st1" cx="246" cy="246" r="216.8"/>
</svg>
